<?xml version="1.0" encoding="UTF-8"?> <!-- Generator: Adobe Illustrator 24.0.1, SVG Export Plug-In . SVG Version: 6.00 Build 0) --> <svg xmlns="http://www.w3.org/2000/svg" xmlns:xlink="http://www.w3.org/1999/xlink" id="Capa_1" x="0px" y="0px" viewBox="0 0 512 512" style="enable-background:new 0 0 512 512;" xml:space="preserve"> <style type="text/css"> .st0{fill:url(#SVGID_1_);} .st1{fill:url(#SVGID_2_);} .st2{fill:url(#SVGID_3_);} .st3{fill:url(#SVGID_4_);} .st4{fill:url(#SVGID_5_);} .st5{fill:url(#SVGID_6_);} .st6{fill:url(#SVGID_7_);} </style> <g> <g> <linearGradient id="SVGID_1_" gradientUnits="userSpaceOnUse" x1="39.789" y1="557.028" x2="554.789" y2="45.028"> <stop offset="0" style="stop-color:#35A7D2"></stop> <stop offset="1" style="stop-color:#0099D2"></stop> </linearGradient> <path class="st0" d="M474.7,408c5.5,0,10-4.5,10-10v-26.5h0c0-23.8-16.2-44.2-39.3-49.7L316,291.1V291c0,0,0,0,0,0v-28.7 c19.1-14.3,32.8-35.5,37.5-59.9c18.6-0.1,33.7-15.3,33.7-34c0-11.9-6.1-22.3-15.4-28.4c1.2-1.7,2-3.7,2-5.9v-18.2 c0-43.3-23.9-81.1-59.1-101c-0.5-0.3-0.9-0.6-1.4-0.8C296.8,5.1,278,0,258,0H254c-20,0-38.8,5.1-55.3,14.1c-0.5,0.2-1,0.5-1.4,0.8 c-35.3,19.9-59.1,57.7-59.1,101V134c0,2.2,0.7,4.3,2,5.9c-9.3,6.1-15.4,16.5-15.4,28.4c0,18.7,15.1,33.8,33.7,34 c4.6,24.1,18.1,45.1,36.9,59.5c0,0.1,0,0.2,0,0.3v29L66.6,321.7c-23.1,5.5-39.3,25.9-39.3,49.7V502c0,5.5,4.5,10,10,10h437.4 c5.5,0,10-4.5,10-10v-31.5c0-5.5-4.5-10-10-10s-10,4.5-10,10V492H408v-82v-76.5l32.8,7.8c14.1,3.3,23.9,15.8,23.9,30.3V398 C464.7,403.5,469.2,408,474.7,408z M344.5,318.4L296,366.9L270.1,341l32.5-32.5c0.3,0.1,0.7,0.2,1.1,0.3L344.5,318.4z M256,326.8 l-40.6-40.6v-12.7c11.9,5.2,25.1,8.1,39,8.1h3.2c13.6,0,26.6-2.8,38.4-7.9v13L256,326.8z M355.2,154.5c6.8,1,12,6.8,12,13.8 s-5.2,12.9-12,13.8V154.5z M156.8,182.2c-6.8-1-12-6.8-12-13.8s5.2-12.9,12-13.8V182.2z M163.2,124h-5v-8.2h0 c0-31.6,15.4-59.7,39-77.1l11.4,37.7c1.3,4.3,5.3,7.1,9.6,7.1c1,0,1.9-0.1,2.9-0.4c5.3-1.6,8.3-7.2,6.7-12.5L215,28.3 c9.6-4.3,20.1-7.1,31-8v49.8c0,5.5,4.5,10,10,10s10-4.5,10-10V20.3c11,0.9,21.4,3.7,31,8l-12.7,42.3c-1.6,5.3,1.4,10.9,6.7,12.5 c1,0.3,1.9,0.4,2.9,0.4c4.3,0,8.3-2.8,9.6-7.1l11.4-37.7c23.7,17.5,39,45.5,39,77.1v8.2h-5c-4.5-18.3-21.1-32-40.8-32H204 C184.3,92,167.7,105.7,163.2,124z M327.6,124H184.4c3.6-7.1,11.1-12,19.6-12h104C316.5,112,323.9,116.9,327.6,124z M176.8,184.1 V144h158.4v40.1c0,42.8-34.8,77.6-77.6,77.6h-3.2C211.6,261.7,176.8,226.8,176.8,184.1z M207.7,308.8c0.5-0.1,1-0.3,1.4-0.5 l32.7,32.7L216,366.9l-48.5-48.5L207.7,308.8z M164,343.2l44.9,44.9c3.9,3.9,10.2,3.9,14.1,0l33-33l33,33c2,2,4.5,2.9,7.1,2.9 c2.6,0,5.1-1,7.1-2.9l44.9-44.9V400H164L164,343.2L164,343.2z M124,328.7l20-4.8V400h-20V328.7z M104,410v82H47.3V371.5 c0-14.5,9.8-26.9,23.9-30.3l32.8-7.8C104,333.4,104,410,104,410z M388,492H124v-72h30h204h30V492z M388,400h-20v-76l20,4.7V400z"></path> </g> </g> <g> <g> <linearGradient id="SVGID_2_" gradientUnits="userSpaceOnUse" x1="194.2906" y1="712.4349" x2="709.2906" y2="200.4349"> <stop offset="0" style="stop-color:#0099D2"></stop> <stop offset="1" style="stop-color:#35A7D2"></stop> </linearGradient> <path class="st1" d="M481.8,426.6c-1.9-1.9-4.4-2.9-7.1-2.9s-5.2,1.1-7.1,2.9c-1.9,1.9-2.9,4.4-2.9,7.1c0,2.6,1.1,5.2,2.9,7.1 c1.9,1.9,4.4,2.9,7.1,2.9c2.6,0,5.2-1.1,7.1-2.9s2.9-4.4,2.9-7.1C484.7,431,483.6,428.5,481.8,426.6z"></path> </g> </g> <g> <g> <linearGradient id="SVGID_3_" gradientUnits="userSpaceOnUse" x1="42.0371" y1="559.2893" x2="557.0371" y2="47.2893"> <stop offset="0" style="stop-color:#0099D2"></stop> <stop offset="1" style="stop-color:#35A7D2"></stop> </linearGradient> <path class="st2" d="M161,440.9c-1.9-1.9-4.4-2.9-7.1-2.9s-5.2,1.1-7.1,2.9c-1.9,1.9-2.9,4.4-2.9,7.1s1.1,5.2,2.9,7.1 c1.9,1.9,4.4,2.9,7.1,2.9s5.2-1.1,7.1-2.9c1.9-1.9,2.9-4.4,2.9-7.1S162.9,442.8,161,440.9z"></path> </g> </g> <g> <g> <linearGradient id="SVGID_4_" gradientUnits="userSpaceOnUse" x1="143.4462" y1="661.2925" x2="658.4462" y2="149.2925"> <stop offset="0" style="stop-color:#0099D2"></stop> <stop offset="1" style="stop-color:#35A7D2"></stop> </linearGradient> <path class="st3" d="M365.1,440.9c-1.9-1.9-4.4-2.9-7.1-2.9s-5.2,1.1-7.1,2.9c-1.9,1.9-2.9,4.4-2.9,7.1s1.1,5.2,2.9,7.1 c1.9,1.9,4.4,2.9,7.1,2.9c2.6,0,5.2-1.1,7.1-2.9c1.9-1.9,2.9-4.4,2.9-7.1S366.9,442.8,365.1,440.9z"></path> </g> </g> <g> <g> <linearGradient id="SVGID_5_" gradientUnits="userSpaceOnUse" x1="-27.645" y1="489.1989" x2="487.355" y2="-22.8011"> <stop offset="0" style="stop-color:#0099D2"></stop> <stop offset="1" style="stop-color:#35A7D2"></stop> </linearGradient> <path class="st4" d="M315.3,196.2c-1.5-1.1-7-4.3-13.9,0.5c0,0,0,0,0,0c-0.2,0.1-0.3,0.2-0.4,0.3c-0.3,0-0.7,0-1.4,0 c-1.4,0-4.6-2.2-7.1-4c-5.4-3.7-12.7-8.8-22.6-8.8c-3.5,0-8.4,0.8-13.8,3.9c-5.5-3.1-10.3-3.9-13.8-3.9c-10,0-17.3,5.1-22.6,8.8 c-2.5,1.8-5.7,4-7.1,4c-0.6,0-1.1,0-1.4,0c-0.1-0.1-0.2-0.2-0.4-0.3c-6.9-4.8-12.4-1.6-13.9-0.5c-3.9,2.9-5.4,8-3.8,13.2 c0.1,0.2,0.1,0.3,0.2,0.5c3.7,10.1,16.7,26.1,35.7,26.1c11.1,0,20.1-2.4,27.3-7.3c7.1,4.9,16.1,7.3,27.3,7.3c19,0,32-16,35.7-26.1 c0.1-0.2,0.1-0.3,0.2-0.5C320.7,204.2,319.2,199,315.3,196.2z M248.3,208.9c-2.9,3.5-7.4,7.1-19.5,7.1c-2.1,0-4.2-0.5-6-1.4 c3-1.4,5.7-3.3,8.2-5.1c4-2.8,7.5-5.2,11.2-5.2c0.9,0,3.5,0.4,7.2,3.6C248.9,208.1,248.6,208.5,248.3,208.9z M283.3,215.9 c-12.1,0-16.7-3.6-19.5-7.1c-0.3-0.4-0.7-0.8-1-1.1c3.6-3.2,6.2-3.6,7.2-3.6c3.7,0,7.2,2.4,11.2,5.2c2.5,1.8,5.2,3.6,8.2,5.1 C287.4,215.4,285.4,215.9,283.3,215.9z"></path> </g> </g> <g> <g> <linearGradient id="SVGID_6_" gradientUnits="userSpaceOnUse" x1="89.3106" y1="606.8397" x2="604.3106" y2="94.8397"> <stop offset="0" style="stop-color:#0099D2"></stop> <stop offset="1" style="stop-color:#35A7D2"></stop> </linearGradient> <path class="st5" d="M260.5,452h-51c-5.5,0-10,4.5-10,10s4.5,10,10,10h51c5.5,0,10-4.5,10-10S266,452,260.5,452z"></path> </g> </g> <g> <g> <linearGradient id="SVGID_7_" gradientUnits="userSpaceOnUse" x1="122.8632" y1="640.5889" x2="637.8632" y2="128.5889"> <stop offset="0" style="stop-color:#0099D2"></stop> <stop offset="1" style="stop-color:#35A7D2"></stop> </linearGradient> <path class="st6" d="M309.6,454.9c-1.9-1.9-4.4-2.9-7.1-2.9s-5.2,1.1-7.1,2.9c-1.9,1.9-2.9,4.4-2.9,7.1s1.1,5.2,2.9,7.1 c1.9,1.9,4.4,2.9,7.1,2.9s5.2-1.1,7.1-2.9c1.9-1.9,2.9-4.4,2.9-7.1S311.4,456.8,309.6,454.9z"></path> </g> </g> </svg> 