<?xml version="1.0" encoding="UTF-8"?> <!-- Generator: Adobe Illustrator 24.0.1, SVG Export Plug-In . SVG Version: 6.00 Build 0) --> <svg xmlns="http://www.w3.org/2000/svg" xmlns:xlink="http://www.w3.org/1999/xlink" id="Layer_1" x="0px" y="0px" viewBox="0 0 512 512" style="enable-background:new 0 0 512 512;" xml:space="preserve"> <style type="text/css"> .st0{fill:url(#SVGID_1_);} .st1{fill:url(#SVGID_2_);} .st2{fill:url(#SVGID_3_);} .st3{fill:url(#SVGID_4_);} .st4{fill:url(#SVGID_5_);} .st5{fill:url(#SVGID_6_);} .st6{fill:url(#SVGID_7_);} </style> <linearGradient id="SVGID_1_" gradientUnits="userSpaceOnUse" x1="-3.8827" y1="503.071" x2="508.1173" y2="-4.929"> <stop offset="0" style="stop-color:#3EB7F5"></stop> <stop offset="1" style="stop-color:#369ED3"></stop> </linearGradient> <path class="st0" d="M459,203.5c0-9.7-3.1-18.9-9-26.6c-5-6.7-6.7-15.1-4.6-23.2c2.5-9.4,1.8-19.1-1.9-28 c-3.7-9-10.1-16.3-18.5-21.2c-7.2-4.2-12-11.4-13.1-19.7c-1.3-9.6-5.6-18.3-12.5-25.2c-6.9-6.9-15.6-11.2-25.2-12.5 c-8.3-1.1-15.5-5.9-19.7-13.1c-4.9-8.4-12.2-14.8-21.2-18.5c-5.4-2.2-11.1-3.4-16.8-3.4c-3.8,0-7.5,0.5-11.2,1.4 c-2.2,0.6-4.5,0.9-6.9,0.9c-5.9,0-11.7-2-16.3-5.5c-7.7-5.9-16.9-9-26.6-9s-18.9,3.1-26.6,9c-4.7,3.5-10.5,5.5-16.4,5.5 c-2.3,0-4.6-0.3-6.8-0.9c-3.7-1-7.4-1.5-11.2-1.5c-5.8,0-11.5,1.1-16.8,3.4c-9,3.7-16.3,10.1-21.2,18.5c-4.2,7.2-11.4,12-19.7,13.1 c-9.6,1.3-18.3,5.6-25.2,12.5c-6.9,6.9-11.2,15.6-12.5,25.2c-1.1,8.3-5.9,15.5-13.1,19.7c-8.4,4.9-14.8,12.2-18.5,21.2 c-3.7,9-4.4,18.7-1.9,28c2.1,8.1,0.4,16.5-4.6,23.2c-5.9,7.7-9,16.9-9,26.6c0,9.7,3.1,18.9,9,26.6c5,6.7,6.7,15.1,4.6,23.2 c-2.5,9.4-1.8,19.1,1.9,28c3.7,9,10.1,16.3,18.5,21.2c7.2,4.2,12,11.4,13.1,19.7c1.3,9.6,5.6,18.3,12.5,25.2 c6.9,6.9,15.6,11.2,25.2,12.5c8.3,1.1,15.5,5.9,19.7,13.1c4.9,8.4,12.2,14.8,21.2,18.5c3.4,1.4,6.8,2.4,10.4,2.9v110.1 c0,2.8,1.6,5.4,4.1,6.7c2.5,1.3,5.6,1,7.9-0.7l55.5-41.6l55.5,41.6c1.3,1,2.9,1.5,4.5,1.5c1.1,0,2.3-0.3,3.4-0.8 c2.5-1.3,4.1-3.9,4.1-6.7V394.4c3.5-0.5,7-1.5,10.4-2.9c9-3.7,16.3-10.1,21.2-18.5c4.2-7.2,11.4-12,19.7-13.1 c9.6-1.3,18.3-5.6,25.2-12.5c6.9-6.9,11.2-15.6,12.5-25.2c1.1-8.3,5.9-15.5,13.1-19.7c8.4-4.9,14.8-12.2,18.5-21.2 c3.7-9,4.4-18.7,1.9-28c-2.1-8.1-0.4-16.5,4.6-23.2C455.9,222.4,459,213.2,459,203.5z M260,453.5c-2.7-2-6.3-2-9,0l-48,36V394 c0.9-0.2,1.8-0.4,2.7-0.6c2.2-0.6,4.5-0.9,6.9-0.9c5.9,0,11.7,2,16.3,5.5c7.7,5.9,16.9,9,26.6,9s18.9-3.1,26.6-9 c4.7-3.5,10.5-5.5,16.4-5.5c2.3,0,4.6,0.3,6.8,0.9c0.9,0.2,1.8,0.4,2.7,0.6v95.5L260,453.5z M438.1,221.1 c-7.8,10.4-10.5,23.5-7.2,36.1c1.6,6.2,1.2,12.6-1.3,18.5c-2.4,5.9-6.7,10.7-12.2,14c-11.2,6.6-18.7,17.7-20.4,30.6 c-0.9,6.3-3.7,12.1-8.2,16.6c-4.5,4.5-10.3,7.4-16.6,8.2c-12.9,1.8-24,9.2-30.6,20.4c-3.2,5.5-8,9.7-14,12.2 c-3.6,1.5-7.3,2.2-11.1,2.2c-2.5,0-5-0.3-7.4-1c-3.5-0.9-7.1-1.4-10.6-1.4c-9.1,0-18.1,3-25.4,8.6c-5.1,3.9-11.2,5.9-17.6,5.9 s-12.5-2-17.6-5.9c-7.3-5.5-16.3-8.5-25.4-8.5c-3.6,0-7.2,0.5-10.7,1.4c-6.1,1.6-12.6,1.2-18.5-1.3c-5.9-2.4-10.7-6.7-14-12.2 c-6.6-11.2-17.7-18.7-30.6-20.4c-6.3-0.9-12.1-3.7-16.6-8.2s-7.4-10.3-8.2-16.6c-1.8-12.9-9.2-24-20.4-30.6 c-5.5-3.2-9.7-8.1-12.2-14c-2.4-5.9-2.9-12.3-1.3-18.5c3.3-12.6,0.7-25.7-7.2-36.1C69,216,67,209.9,67,203.5s2-12.5,5.9-17.6 c7.8-10.4,10.5-23.5,7.2-36.1c-1.6-6.2-1.2-12.6,1.3-18.5c2.5-5.9,6.7-10.7,12.2-14c11.2-6.6,18.7-17.7,20.4-30.6 c0.9-6.3,3.7-12.1,8.2-16.6s10.3-7.4,16.6-8.2c12.9-1.8,24-9.2,30.6-20.4c3.2-5.5,8.1-9.7,14-12.2c5.9-2.4,12.4-2.9,18.5-1.3 c3.5,0.9,7.1,1.4,10.6,1.4c9.1,0,18.1-3,25.4-8.6C243,17,249.1,15,255.5,15s12.5,2,17.6,5.9c7.3,5.5,16.3,8.5,25.4,8.5 c3.6,0,7.2-0.5,10.7-1.4c6.1-1.6,12.6-1.2,18.5,1.3c5.9,2.4,10.7,6.7,14,12.2c6.6,11.2,17.7,18.7,30.6,20.4 c6.3,0.9,12.1,3.7,16.6,8.2s7.4,10.3,8.2,16.6c1.8,12.9,9.2,24,20.4,30.6c5.5,3.2,9.7,8.1,12.2,14c2.4,5.9,2.9,12.3,1.3,18.5 c-3.3,12.6-0.7,25.7,7.2,36.1c3.9,5.1,5.9,11.2,5.9,17.6S442,216,438.1,221.1z"></path> <linearGradient id="SVGID_2_" gradientUnits="userSpaceOnUse" x1="-46.4807" y1="460.1376" x2="465.5193" y2="-47.8624"> <stop offset="0" style="stop-color:#3EB7F5"></stop> <stop offset="1" style="stop-color:#369ED3"></stop> </linearGradient> <path class="st1" d="M385.2,171.7c-7-28.5-23.6-54.3-46.7-72.7c-23.8-19-52.5-29-83-29s-59.1,10-83,29 c-23.1,18.4-39.7,44.2-46.7,72.7c-0.6,2.2,0,4.6,1.4,6.4c1.4,1.8,3.6,2.9,5.9,2.9h244.8c2.3,0,4.5-1.1,5.9-2.9 S385.7,173.9,385.2,171.7z M143.1,166c16-48.1,60.9-81,112.4-81s96.4,32.9,112.4,81H143.1z"></path> <linearGradient id="SVGID_3_" gradientUnits="userSpaceOnUse" x1="-39.8718" y1="466.7986" x2="472.1282" y2="-41.2015"> <stop offset="0" style="stop-color:#3EB7F5"></stop> <stop offset="1" style="stop-color:#369ED3"></stop> </linearGradient> <path class="st2" d="M233,203.5c0,4.1-3.4,7.5-7.5,7.5s-7.5-3.4-7.5-7.5s3.4-7.5,7.5-7.5S233,199.4,233,203.5z"></path> <linearGradient id="SVGID_4_" gradientUnits="userSpaceOnUse" x1="-24.9894" y1="481.7981" x2="487.0106" y2="-26.2019"> <stop offset="0" style="stop-color:#3EB7F5"></stop> <stop offset="1" style="stop-color:#369ED3"></stop> </linearGradient> <path class="st3" d="M263,203.5c0,4.1-3.4,7.5-7.5,7.5s-7.5-3.4-7.5-7.5s3.4-7.5,7.5-7.5S263,199.4,263,203.5z"></path> <linearGradient id="SVGID_5_" gradientUnits="userSpaceOnUse" x1="-10.107" y1="496.7976" x2="501.8929" y2="-11.2024"> <stop offset="0" style="stop-color:#3EB7F5"></stop> <stop offset="1" style="stop-color:#369ED3"></stop> </linearGradient> <path class="st4" d="M293,203.5c0,4.1-3.4,7.5-7.5,7.5s-7.5-3.4-7.5-7.5s3.4-7.5,7.5-7.5S293,199.4,293,203.5z"></path> <linearGradient id="SVGID_6_" gradientUnits="userSpaceOnUse" x1="-3.4981" y1="503.4586" x2="508.5019" y2="-4.5414"> <stop offset="0" style="stop-color:#3EB7F5"></stop> <stop offset="1" style="stop-color:#369ED3"></stop> </linearGradient> <path class="st5" d="M127.2,228.9c-1.4,1.8-1.9,4.2-1.4,6.4c7,28.5,23.6,54.3,46.7,72.7c23.8,19,52.5,29,83,29s59.1-10,83-29 c23.1-18.4,39.7-44.2,46.7-72.7c0.6-2.2,0-4.6-1.4-6.4c-1.4-1.8-3.6-2.9-5.9-2.9H133.1C130.8,226,128.6,227.1,127.2,228.9z M367.9,241c-16,48.1-60.9,81-112.4,81c-51.5,0-96.4-32.9-112.4-81H367.9z"></path> <linearGradient id="SVGID_7_" gradientUnits="userSpaceOnUse" x1="-24.7599" y1="482.0294" x2="487.2401" y2="-25.9706"> <stop offset="0" style="stop-color:#3EB7F5"></stop> <stop offset="1" style="stop-color:#369ED3"></stop> </linearGradient> <path class="st6" d="M255.5,40c-37.8,0-74.8,13.3-103.9,37.4c-3.2,2.6-3.6,7.4-1,10.6c2.6,3.2,7.4,3.6,10.6,1 c26.5-21.9,60-34,94.4-34C337.4,55,404,121.6,404,203.5S337.4,352,255.5,352S107,285.4,107,203.5c0-34.3,12-67.8,33.9-94.3 c2.6-3.2,2.2-7.9-1-10.6c-3.2-2.6-7.9-2.2-10.6,1C105.3,128.8,92,165.7,92,203.5C92,293.7,165.3,367,255.5,367S419,293.7,419,203.5 S345.7,40,255.5,40z"></path> </svg> 