<?xml version="1.0" encoding="UTF-8"?> <!-- Generator: Adobe Illustrator 24.0.1, SVG Export Plug-In . SVG Version: 6.00 Build 0) --> <svg xmlns="http://www.w3.org/2000/svg" xmlns:xlink="http://www.w3.org/1999/xlink" id="Capa_1" x="0px" y="0px" viewBox="0 0 512 512" style="enable-background:new 0 0 512 512;" xml:space="preserve"> <style type="text/css"> .st0{fill:url(#SVGID_1_);} .st1{fill:url(#SVGID_2_);} .st2{fill:url(#SVGID_3_);} .st3{fill:url(#SVGID_4_);} .st4{fill:url(#SVGID_5_);} .st5{fill:url(#SVGID_6_);} .st6{fill:url(#SVGID_7_);} .st7{fill:url(#SVGID_8_);} .st8{fill:url(#SVGID_9_);} </style> <g> <g> <linearGradient id="SVGID_1_" gradientUnits="userSpaceOnUse" x1="-57.9278" y1="454.187" x2="454.0722" y2="-58.813"> <stop offset="0" style="stop-color:#35A7D2"></stop> <stop offset="1" style="stop-color:#0099D2"></stop> </linearGradient> <path class="st0" d="M260.7,36.9L260.7,36.9c-2.7-1.4-5.9-1.5-8.7-0.3c-0.7,0.3-17,7.5-33.2,23.6c-21.6,21.5-33.1,49-33.1,79.4 s11.4,57.9,33.1,79.4c16.2,16.2,32.5,23.3,33.2,23.6c1.3,0.6,2.6,0.8,4,0.8c1.4,0,2.7-0.3,4-0.8c0.7-0.3,17-7.5,33.2-23.6 c21.6-21.5,33-49,33-79.4C326.2,71.8,271.6,42.2,260.7,36.9z M279.6,204.4c-4.7,4.7-9.4,8.6-13.6,11.6v-76.3c0-5.5-4.5-10-10-10 c-5.5,0-10,4.5-10,10v76.3c-4.2-3-8.9-6.8-13.6-11.6c-17.7-17.9-26.7-39.7-26.7-64.7s9-46.9,26.7-64.7 c9.1-9.2,18.4-15.1,23.5-17.9c14.1,7.8,50.2,32.7,50.2,82.6C306.2,164.7,297.3,186.5,279.6,204.4z"></path> </g> </g> <g> <g> <linearGradient id="SVGID_2_" gradientUnits="userSpaceOnUse" x1="-20.385" y1="491.6566" x2="491.615" y2="-21.3433"> <stop offset="0" style="stop-color:#35A7D2"></stop> <stop offset="1" style="stop-color:#0099D2"></stop> </linearGradient> <path class="st1" d="M242.4,271.8c-0.3-2.8-1.8-5.3-4-6.9c-0.6-0.4-15-11-37.1-16.9c-29.5-8-59-4.1-85.3,11.1 C57.3,292.9,59,355,59.9,367.1l0,0.1c0.1,3,1.6,5.8,4,7.6c0.6,0.4,15,11,37.1,16.9c10,2.7,20,4,29.9,4c19.2,0,38-5.1,55.4-15.1 c26.3-15.2,44.4-38.8,52.2-68.3C244.4,290.2,242.5,272.5,242.4,271.8z M176.3,363.3c-21.7,12.5-45.1,15.7-69.4,9.3 c-12.6-3.3-22.3-8.4-27.3-11.4c-0.3-16.1,3.2-59.9,46.4-84.8c21.7-12.5,45.1-15.7,69.4-9.3c6.4,1.7,12.1,3.9,16.8,6l-66.1,38.1 c-4.8,2.8-6.4,8.9-3.7,13.7c1.9,3.2,5.2,5,8.7,5c1.7,0,3.4-0.4,5-1.3l66.1-38.1C220.2,310,211.4,343,176.3,363.3z"></path> </g> </g> <g> <g> <linearGradient id="SVGID_3_" gradientUnits="userSpaceOnUse" x1="84.6772" y1="596.5141" x2="596.6772" y2="83.5141"> <stop offset="0" style="stop-color:#35A7D2"></stop> <stop offset="1" style="stop-color:#0099D2"></stop> </linearGradient> <path class="st2" d="M448.2,327.3c-7.9-29.5-25.9-53.1-52.2-68.3c-26.3-15.2-55.8-19-85.3-11.1c-22.1,6-36.5,16.5-37.1,16.9 c-2.2,1.6-3.7,4.1-4,6.9c-0.1,0.7-2,18.4,3.9,40.6c7.9,29.5,25.9,53.1,52.2,68.3c19.5,11.2,38.3,15.2,55.2,15.2 c34,0,59.8-16,66.5-20.6l0.1,0c2.5-1.6,4.2-4.3,4.5-7.3C452.2,367.1,454.1,349.4,448.2,327.3z M432.4,361.1 c-13.8,8.3-53.4,27.2-96.7,2.2c-21.7-12.5-36.1-31.2-42.7-55.5c-1.8-6.4-2.7-12.4-3.2-17.5l66.1,38.2c1.6,0.9,3.3,1.3,5,1.3 c3.5,0,6.8-1.8,8.7-5c2.8-4.8,1.1-10.9-3.7-13.7L299.8,273c18.1-8.1,51-17,86.2,3.3c21.7,12.5,36.1,31.2,42.7,55.5 C432.1,344.3,432.5,355.2,432.4,361.1z"></path> </g> </g> <g> <g> <linearGradient id="SVGID_4_" gradientUnits="userSpaceOnUse" x1="87.8567" y1="599.6873" x2="599.8566" y2="86.6873"> <stop offset="0" style="stop-color:#35A7D2"></stop> <stop offset="1" style="stop-color:#0099D2"></stop> </linearGradient> <path class="st3" d="M417.1,439.1c-3.4-4.3-9.7-5-14.1-1.6c-90.9,72.5-223.5,67.1-308.5-12.6c-4-3.8-10.4-3.6-14.1,0.5 c-3.8,4-3.6,10.4,0.5,14.1c45.2,42.4,104.1,66.9,165.9,69.1c3.1,0.1,6.2,0.2,9.2,0.2c58,0,114.3-19.6,159.5-55.7 C419.8,449.7,420.5,443.4,417.1,439.1z"></path> </g> </g> <g> <g> <linearGradient id="SVGID_5_" gradientUnits="userSpaceOnUse" x1="172.6997" y1="684.365" x2="684.6997" y2="171.365"> <stop offset="0" style="stop-color:#35A7D2"></stop> <stop offset="1" style="stop-color:#0099D2"></stop> </linearGradient> <path class="st4" d="M442.4,413.7c-4-3.8-10.4-3.6-14.1,0.4l-0.2,0.2c-3.8,4-3.6,10.4,0.4,14.1c1.9,1.8,4.4,2.7,6.8,2.7 c2.7,0,5.3-1.1,7.3-3.2l0.2-0.2C446.6,423.8,446.4,417.5,442.4,413.7z"></path> </g> </g> <g> <g> <linearGradient id="SVGID_6_" gradientUnits="userSpaceOnUse" x1="37.9753" y1="549.9033" x2="549.9753" y2="36.9033"> <stop offset="0" style="stop-color:#35A7D2"></stop> <stop offset="1" style="stop-color:#0099D2"></stop> </linearGradient> <path class="st5" d="M482.2,132.9c-28.7-54.1-75.7-96.2-132.5-118.4c-5.1-2-10.9,0.5-13,5.7c-2,5.1,0.5,10.9,5.7,13 c108.3,42.5,169.9,160,143.3,273.4c-1.3,5.4,2.1,10.8,7.5,12c0.8,0.2,1.5,0.3,2.3,0.3c4.5,0,8.6-3.1,9.7-7.7 C519.4,250.8,511.2,187.5,482.2,132.9z"></path> </g> </g> <g> <g> <linearGradient id="SVGID_7_" gradientUnits="userSpaceOnUse" x1="-93.0781" y1="419.1053" x2="418.9219" y2="-93.8947"> <stop offset="0" style="stop-color:#35A7D2"></stop> <stop offset="1" style="stop-color:#0099D2"></stop> </linearGradient> <path class="st6" d="M314.4,3.5l-0.3-0.1c-5.4-1.3-10.8,2.1-12,7.4c-1.3,5.4,2.1,10.8,7.4,12l0.3,0.1c0.8,0.2,1.5,0.3,2.3,0.3 c4.5,0,8.6-3.1,9.7-7.7C323.1,10.2,319.8,4.8,314.4,3.5z"></path> </g> </g> <g> <g> <linearGradient id="SVGID_8_" gradientUnits="userSpaceOnUse" x1="-140.2492" y1="372.0262" x2="371.7508" y2="-140.9739"> <stop offset="0" style="stop-color:#35A7D2"></stop> <stop offset="1" style="stop-color:#0099D2"></stop> </linearGradient> <path class="st7" d="M194.4,14.4c-1.6-5.3-7.2-8.3-12.5-6.7C122.7,25.6,72,64.4,39.1,116.8C6.6,168.7-6.3,230.4,2.8,290.7 c0.7,5,5,8.5,9.9,8.5c0.5,0,1,0,1.5-0.1c5.5-0.8,9.2-5.9,8.4-11.4C5.3,172.7,76.2,60.6,187.7,26.9C193,25.3,196,19.7,194.4,14.4z"></path> </g> </g> <g> <g> <linearGradient id="SVGID_9_" gradientUnits="userSpaceOnUse" x1="-83.6803" y1="428.4848" x2="428.3284" y2="-84.5238"> <stop offset="0" style="stop-color:#35A7D2"></stop> <stop offset="1" style="stop-color:#0099D2"></stop> </linearGradient> <path class="st8" d="M30.2,321.3l-0.1-0.3c-1.6-5.3-7.2-8.3-12.5-6.7c-5.3,1.6-8.3,7.2-6.7,12.5l0.1,0.3c1.3,4.3,5.3,7.1,9.6,7.1 c1,0,1.9-0.1,2.9-0.4C28.8,332.1,31.8,326.5,30.2,321.3z"></path> </g> </g> </svg> 