<?xml version="1.0" encoding="UTF-8"?> <!-- Generator: Adobe Illustrator 24.0.1, SVG Export Plug-In . SVG Version: 6.00 Build 0) --> <svg xmlns="http://www.w3.org/2000/svg" xmlns:xlink="http://www.w3.org/1999/xlink" id="Layer_1" x="0px" y="0px" viewBox="0 0 512 512" style="enable-background:new 0 0 512 512;" xml:space="preserve"> <style type="text/css"> .st0{fill:url(#SVGID_1_);} .st1{fill:url(#SVGID_2_);} .st2{fill:url(#SVGID_3_);} .st3{fill:url(#SVGID_4_);} .st4{fill:url(#SVGID_5_);} .st5{fill:url(#SVGID_6_);} </style> <g> <g> <g> <linearGradient id="SVGID_1_" gradientUnits="userSpaceOnUse" x1="-0.1345" y1="418.7982" x2="500.8654" y2="84.7982"> <stop offset="0" style="stop-color:#3EB7F5"></stop> <stop offset="1" style="stop-color:#369ED3"></stop> </linearGradient> <path class="st0" d="M476.2,231.4l-13.3-53c3.6-0.8,6.3-4,6.3-7.8v-8.6c0-18.6-15.1-33.7-33.7-33.7h-60.4v-17.6 c0-9.1-7.4-16.6-16.6-16.6H50.8c-9.1,0-16.6,7.4-16.6,16.6V256c0,4.4,3.6,8,8,8c4.4,0,8-3.6,8-8V110.6c0-0.3,0.2-0.5,0.5-0.5 h307.8c0.3,0,0.5,0.2,0.5,0.5V256c0,4.4,3.6,8,8,8c4.4,0,8-3.6,8-8v-9.1h94.6c0,0,0,0,0,0c0,0,0,0,0,0c11.6,0,21.5,7.6,24.9,18.2 h-24.9c-4.4,0-8,3.6-8,8v17.1c0,13.9,11.3,25.1,25.1,25.1h9.1v35.3h-21c-6.9-19.9-25.8-34.2-48-34.2s-41.1,14.3-48,34.2h-3.9 v-60.4c0-4.4-3.6-8-8-8c-4.4,0-8,3.6-8,8v60.4H192.8c-6.9-19.9-25.8-34.2-48-34.2s-41.1,14.3-48,34.2H50.8 c-0.3,0-0.5-0.2-0.5-0.5v-17.6H85c4.4,0,8-3.6,8-8s-3.6-8-8-8H8c-4.4,0-8,3.6-8,8s3.6,8,8,8h26.2v17.6c0,9.1,7.4,16.6,16.6,16.6 h43.3c0,0.2,0,0.4,0,0.5c0,28,22.8,50.8,50.8,50.8s50.8-22.8,50.8-50.8c0-0.2,0-0.4,0-0.5h180.7c0,0.2,0,0.4,0,0.5 c0,28,22.8,50.8,50.8,50.8s50.8-22.8,50.8-50.8c0-0.2,0-0.4,0-0.5H504c4.4,0,8-3.6,8-8v-85.5C512,252,496.4,234.4,476.2,231.4z M375.2,144.3h60.4c9.7,0,17.6,7.9,17.6,17.6v0.5h-78V144.3z M375.2,230.9v-52.4h71.2l13.1,52.4L375.2,230.9L375.2,230.9z M144.8,401.9c-19.2,0-34.7-15.6-34.7-34.7s15.6-34.7,34.7-34.7s34.7,15.6,34.7,34.7S164,401.9,144.8,401.9z M427,401.9 c-19.2,0-34.7-15.6-34.7-34.7s15.6-34.7,34.7-34.7c19.2,0,34.7,15.6,34.7,34.7S446.2,401.9,427,401.9z M496,299.3h-9.1 c-5,0-9.1-4.1-9.1-9.1v-9.1H496L496,299.3L496,299.3z"></path> </g> </g> <g> <g> <linearGradient id="SVGID_2_" gradientUnits="userSpaceOnUse" x1="20.6408" y1="449.9612" x2="521.6407" y2="115.9611"> <stop offset="0" style="stop-color:#3EB7F5"></stop> <stop offset="1" style="stop-color:#369ED3"></stop> </linearGradient> <path class="st1" d="M144.8,350.6c-9.1,0-16.6,7.4-16.6,16.6s7.4,16.6,16.6,16.6c9.1,0,16.6-7.4,16.6-16.6 C161.4,358,154,350.6,144.8,350.6z"></path> </g> </g> <g> <g> <linearGradient id="SVGID_3_" gradientUnits="userSpaceOnUse" x1="107.4678" y1="580.2018" x2="608.4678" y2="246.2018"> <stop offset="0" style="stop-color:#3EB7F5"></stop> <stop offset="1" style="stop-color:#369ED3"></stop> </linearGradient> <path class="st2" d="M427,350.6c-9.1,0-16.6,7.4-16.6,16.6s7.4,16.6,16.6,16.6s16.6-7.4,16.6-16.6S436.2,350.6,427,350.6z"></path> </g> </g> <g> <g> <linearGradient id="SVGID_4_" gradientUnits="userSpaceOnUse" x1="40.3745" y1="479.5617" x2="541.3745" y2="145.5617"> <stop offset="0" style="stop-color:#3EB7F5"></stop> <stop offset="1" style="stop-color:#369ED3"></stop> </linearGradient> <path class="st3" d="M333,316.4H213.2c-4.4,0-8,3.6-8,8s3.6,8,8,8H333c4.4,0,8-3.6,8-8S337.4,316.4,333,316.4z"></path> </g> </g> <g> <g> <linearGradient id="SVGID_5_" gradientUnits="userSpaceOnUse" x1="-35.9282" y1="365.1078" x2="465.0718" y2="31.1078"> <stop offset="0" style="stop-color:#3EB7F5"></stop> <stop offset="1" style="stop-color:#369ED3"></stop> </linearGradient> <path class="st4" d="M127.7,282.2H25.1c-4.4,0-8,3.6-8,8s3.6,8,8,8h102.6c4.4,0,8-3.6,8-8S132.2,282.2,127.7,282.2z"></path> </g> </g> <g> <g> <linearGradient id="SVGID_6_" gradientUnits="userSpaceOnUse" x1="-31.3241" y1="372.0138" x2="469.6758" y2="38.0138"> <stop offset="0" style="stop-color:#3EB7F5"></stop> <stop offset="1" style="stop-color:#369ED3"></stop> </linearGradient> <path class="st5" d="M278.8,173.4c-3.1-3.1-8.2-3.1-11.3,0l-71.3,71.3l-37.1-37.1c-3.1-3.1-8.2-3.1-11.3,0 c-3.1,3.1-3.1,8.2,0,11.3l42.8,42.8c1.6,1.6,3.6,2.3,5.7,2.3s4.1-0.8,5.7-2.3l77-77C281.9,181.6,281.9,176.5,278.8,173.4z"></path> </g> </g> </g> </svg> 